<?xml version="1.0" encoding="UTF-8" standalone="no"?>
<!-- Created with Inkscape (http://www.inkscape.org/) -->

<svg
   version="1.1"
   id="svg1"
   width="677.10712"
   height="280.96954"
   viewBox="0 0 677.10712 280.96956"
   xmlns:xlink="http://www.w3.org/1999/xlink"
   xmlns="http://www.w3.org/2000/svg"
   xmlns:svg="http://www.w3.org/2000/svg">
  <defs
     id="defs1">
    <linearGradient
       id="linearGradient259">
      <stop
         style="stop-color:#800080;stop-opacity:1;"
         offset="0"
         id="stop259" />
      <stop
         style="stop-color:#800080;stop-opacity:1;"
         offset="0.27614939"
         id="stop262" />
      <stop
         style="stop-color:#f97a06;stop-opacity:1;"
         offset="0.48693341"
         id="stop261" />
      <stop
         style="stop-color:#800080;stop-opacity:1;"
         offset="0.7336114"
         id="stop263" />
      <stop
         style="stop-color:#800080;stop-opacity:1;"
         offset="1"
         id="stop260" />
    </linearGradient>
    <clipPath
       clipPathUnits="userSpaceOnUse"
       id="clipPath4">
      <path
         d="m 93.316,664.412 -3.09,-1.304 -2.891,-1.049 -0.539,-0.141 v 0 l -2.069,-0.907 -2.466,-0.823 -2.268,-0.566 -2.097,-0.256 -1.956,-0.028 -1.815,0.199 -0.481,0.141 v 0 l -1.078,0.199 -1.389,0.538 -1.247,0.766 -1.134,1.02 -0.935,1.247 -0.85,1.446 -0.681,1.701 -0.538,1.956 -0.426,2.154 -0.255,2.353 -0.17,2.551 v 2.778 l 0.114,2.948 0.226,3.175 0.369,3.316 0.51,3.572 0.624,3.572 0.708,3.543 0.794,3.515 0.936,3.486 1.02,3.515 1.106,3.43 1.247,3.459 1.304,3.43 1.417,3.401 1.531,3.345 1.587,3.231 1.701,3.175 1.786,3.118 1.899,3.09 1.956,2.977 0.879,1.275 v 0.028 l 1.275,1.531 2.268,2.636 2.409,2.552 2.438,2.381 2.551,2.296 2.665,2.182 1.502,1.134 v 0.057 l 1.276,0.709 2.948,1.587 3.09,1.502 2.891,1.276 2.693,1.049 1.276,0.397 v 0 l 1.275,0.255 2.381,0.368 2.126,0.142 1.956,-0.028 1.701,-0.227 1.502,-0.454 1.276,-0.623 1.02,-0.652 v 0 l 0.085,-0.085 0.482,-0.482 0.425,-0.482 0.397,-0.539 0.312,-0.567 0.255,-0.566 0.227,-0.624 0.17,-0.652 0.113,-0.652 0.057,-0.709 v -0.737 l -0.057,-0.765 -0.085,-0.765 -0.085,-0.511 -0.141,-0.51 -0.114,-0.51 -0.17,-0.482 -0.17,-0.539 -0.227,-0.453 -0.226,-0.482 -0.256,-0.454 -0.283,-0.481 -0.284,-0.454 -0.311,-0.425 -0.34,-0.454 -0.369,-0.425 -0.397,-0.425 -0.397,-0.397 -0.425,-0.397 -0.623,-0.482 v -0.028 l -0.284,-0.312 -0.879,-0.765 -0.935,-0.709 -0.992,-0.652 -0.992,-0.624 -1.021,-0.538 -1.049,-0.425 -1.105,-0.397 0.142,0.992 0.113,1.02 0.028,0.964 v 0.936 l -0.028,0.963 -0.085,0.908 -0.17,0.85 -0.17,0.879 -0.227,0.822 -0.284,0.737 -0.368,0.737 -0.425,0.623 -0.482,0.624 -0.567,0.51 -0.624,0.454 -0.68,0.425 -0.765,0.312 -0.255,0.085 v 0 l -0.567,0.028 -0.879,0.029 -0.964,-0.114 -1.077,-0.227 -1.106,-0.34 -1.218,-0.425 -1.276,-0.539 -3.345,-1.672 -3.146,-1.899 -0.426,-0.255 V 750.5 l -1.02,-0.878 -1.361,-1.219 -1.36,-1.276 -1.276,-1.332 -1.247,-1.361 -1.191,-1.446 -1.162,-1.474 -1.105,-1.53 -1.078,-1.588 -1.02,-1.644 -0.964,-1.644 -0.935,-1.729 -0.879,-1.786 -0.85,-1.814 -0.879,-2.013 -0.028,-0.056 -0.681,-1.758 -1.417,-4.025 -1.276,-4.195 -1.219,-4.394 -1.048,-4.535 -0.964,-4.706 -0.822,-4.875 -0.652,-4.734 -0.454,-4.309 -0.255,-3.94 v -3.487 l 0.17,-3.146 0.425,-2.665 0.142,-0.737 v -0.028 l 0.142,-0.425 0.368,-1.163 0.454,-1.02 0.482,-0.964 0.567,-0.85 0.623,-0.709 0.709,-0.623 0.794,-0.454 0.85,-0.368 0.936,-0.256 1.02,-0.113 h 1.106 l 1.162,0.113 1.219,0.227 1.417,0.482 v 0 l 1.417,0.255 3.203,0.992 3.515,1.446 1.559,0.737 1.531,0.737 1.531,0.822 1.275,0.737 v 0 l 0.227,0.085 1.531,0.709 1.446,0.708 1.36,0.766 1.276,0.793 3.316,21.26 0.17,1.361 0.057,0.624 0.028,0.566 v 0.567 l -0.028,0.511 -0.085,0.482 -0.057,0.396 -0.141,0.397 -0.142,0.34 -0.17,0.312 -0.17,0.255 -0.227,0.227 -0.255,0.199 -0.312,0.141 -0.283,0.085 -0.652,0.142 -0.681,0.057 -0.737,0.028 h -0.623 v 0 l -0.114,-0.057 -0.765,-0.17 -0.822,-0.283 -0.822,-0.312 -0.879,-0.368 -0.425,-0.199 0.879,5.556 3.855,1.757 v 0 l 14.173,4.706 v 0 l 11.48,2.523 -0.85,-5.556 -0.454,-0.085 -0.793,-0.199 -0.794,-0.255 -0.794,-0.283 -0.708,-0.312 -0.737,-0.397 -0.737,-0.453 -0.652,-0.454 -0.681,-0.51 -0.311,-0.284 -0.341,-0.34 -0.283,-0.34 -0.284,-0.368 -0.283,-0.426 -0.255,-0.453 -0.227,-0.454 -0.255,-0.538 -0.227,-0.511 -0.198,-0.595 -0.369,-1.219 -0.312,-1.36 -0.283,-1.503 -3.713,-23.726 -3.119,-2.097 -3.089,-2.211 -3.118,-1.985 -3.09,-1.842 -3.203,-1.701 -3.26,-1.616 -3.345,-1.785 z m 60.775,13.181 -3.147,0.057 -2.919,0.397 -2.665,0.68 -1.275,0.425 -0.312,0.17 v 0 l -0.879,0.255 -1.134,0.511 -1.077,0.567 -1.021,0.652 -0.992,0.708 -0.907,0.794 -0.878,0.879 -0.794,0.963 -0.766,1.049 -0.68,1.106 -0.623,1.219 -0.567,1.219 -0.511,1.332 -0.396,1.361 -0.369,1.474 -0.113,0.453 v 0.028 l -0.17,0.993 -0.227,1.53 -0.227,3.288 v 3.572 l 0.283,3.855 0.539,4.139 0.822,4.479 0.964,4.28 1.134,4.025 1.304,3.798 1.445,3.515 v 0 l 0.029,0.029 0.822,1.616 0.822,1.559 0.907,1.502 0.935,1.446 0.992,1.36 1.021,1.304 1.049,1.247 1.077,1.163 1.134,1.105 1.134,0.992 1.19,0.992 1.219,0.907 1.247,0.794 1.304,0.794 1.304,0.652 0.567,0.283 v 0.029 l 0.794,0.283 2.834,0.765 2.92,0.511 3.118,0.226 2.778,-0.056 2.013,-0.227 v 0 l 0.595,-0.142 2.41,-0.765 2.211,-1.021 1.02,-0.566 0.992,-0.652 0.936,-0.709 0.878,-0.765 0.822,-0.822 0.822,-0.908 0.737,-0.935 0.709,-1.02 0.624,-1.078 0.141,-0.255 v 0 l 0.426,-0.935 0.51,-1.247 0.425,-1.304 0.397,-1.361 0.34,-1.417 0.255,-1.446 0.199,-1.531 0.255,-3.203 v -3.401 l -0.255,-3.6 -0.482,-3.827 -0.964,-6.066 -5.556,0.935 v 0 l -14.258,0.85 h -0.029 l -14.258,-0.34 v 0 l -5.414,-0.623 -0.397,-3.459 -0.255,-3.174 -0.085,-2.977 0.085,-2.664 0.255,-2.41 0.199,-1.134 0.226,-1.048 0.284,-0.964 0.312,-0.907 0.368,-0.851 0.425,-0.793 0.426,-0.737 0.141,-0.199 v 0 l 0.369,-0.51 0.51,-0.68 0.595,-0.596 0.596,-0.595 0.652,-0.51 0.708,-0.482 0.709,-0.397 0.765,-0.368 0.822,-0.312 0.851,-0.255 0.907,-0.227 1.899,-0.255 2.041,-0.057 1.531,0.085 0.481,0.085 v 0.028 l 1.021,-0.028 1.417,0.142 1.418,0.227 1.304,0.311 1.303,0.426 1.276,0.51 1.219,0.595 1.19,0.652 1.078,0.68 1.048,0.737 0.936,0.709 0.907,0.765 0.85,0.823 0.567,0.595 v 0.056 l 0.199,0.142 0.708,0.794 0.17,-0.142 0.171,-0.17 0.198,-0.198 0.142,-0.227 0.141,-0.255 0.171,-0.227 0.17,-0.34 0.113,-0.312 0.113,-0.312 0.114,-0.34 0.056,-0.368 0.057,-0.369 v -0.368 -0.397 l -0.028,-0.425 -0.057,-0.426 -0.057,-0.311 -0.085,-0.369 -0.085,-0.312 -0.113,-0.34 -0.142,-0.34 -0.142,-0.34 -0.368,-0.624 -0.425,-0.68 -0.51,-0.652 -0.567,-0.652 -0.624,-0.68 -0.709,-0.624 -0.17,-0.057 v -0.028 l -0.623,-0.567 -0.879,-0.68 -0.936,-0.624 -0.963,-0.567 -1.077,-0.567 -1.163,-0.482 -1.19,-0.51 -1.304,-0.425 -1.332,-0.369 -1.389,-0.311 -1.474,-0.199 -1.559,-0.17 -1.616,-0.085 -1.673,-0.17 z m 18.227,42.492 0.34,2.579 0.283,2.466 0.114,2.296 0.028,2.24 -0.113,2.069 -0.171,1.984 -0.34,1.786 -0.425,1.701 -0.255,0.822 -0.283,0.765 -0.341,0.681 -0.396,0.651 -0.397,0.624 -0.454,0.51 -0.538,0.539 -0.539,0.453 -0.567,0.397 -0.34,0.227 v 0 l -0.284,0.142 -0.68,0.227 -0.709,0.255 -0.765,0.141 -0.794,0.085 -1.7,0.086 -1.588,-0.142 -0.793,-0.142 -0.766,-0.198 -0.737,-0.227 -0.737,-0.255 -0.709,-0.34 -0.708,-0.369 -0.68,-0.397 -0.681,-0.482 -0.652,-0.453 -0.623,-0.595 -0.624,-0.567 -0.595,-0.539 v -0.057 l -0.029,-0.056 -0.595,-0.737 -0.567,-0.794 -1.105,-1.701 -1.049,-1.814 -0.964,-1.984 -0.879,-2.155 -0.85,-2.324 -0.765,-2.466 -0.709,-2.608 -0.624,-2.778 z m 8.22,-43.342 0.879,5.556 1.531,-0.255 0.963,-0.142 0.936,-0.085 0.907,-0.029 0.879,0.029 0.822,0.113 0.793,0.17 0.737,0.199 0.709,0.283 0.368,0.142 0.312,0.255 0.312,0.227 0.284,0.283 0.311,0.34 0.256,0.369 0.255,0.397 0.255,0.453 0.227,0.482 0.226,0.539 0.17,0.538 0.17,0.596 0.369,1.332 0.255,1.474 6.435,41.159 0.17,1.389 0.056,1.304 v 0.567 0.595 l -0.056,0.51 -0.085,0.482 -0.114,0.482 -0.085,0.454 -0.17,0.397 -0.17,0.396 -0.227,0.369 -0.226,0.312 -0.255,0.312 -0.284,0.255 -0.595,0.51 -0.681,0.425 -0.68,0.369 -0.765,0.396 -0.794,0.312 -0.85,0.255 -0.907,0.227 -0.936,0.17 -0.34,0.057 0.879,5.556 18.425,-3.062 -0.085,-5.159 v -0.141 l -0.085,-5.726 0.595,-0.17 1.162,1.53 1.134,1.333 1.162,1.19 1.134,1.049 1.191,0.879 1.134,0.68 1.19,0.51 0.567,0.199 0.567,0.198 1.191,0.198 1.19,0.171 1.219,0.056 1.219,0.029 1.247,-0.085 1.276,-0.171 1.304,-0.226 1.304,-0.34 1.36,-0.397 1.304,-0.511 1.248,-0.566 1.247,-0.652 1.162,-0.709 1.134,-0.822 1.077,-0.851 1.049,-0.935 v 0 h 0.028 l 0.907,-1.134 0.851,-1.219 0.765,-1.332 0.652,-1.389 0.595,-1.531 0.482,-1.615 0.397,-1.673 0.312,-1.814 0.907,-0.312 1.134,1.446 1.134,1.275 1.162,1.078 1.19,0.963 1.163,0.766 1.218,0.567 1.191,0.425 1.219,0.255 1.219,0.113 1.219,0.029 1.247,-0.029 1.247,-0.085 1.247,-0.198 1.276,-0.284 1.276,-0.368 1.275,-0.425 2.069,-0.879 1.928,-1.021 1.786,-1.133 1.616,-1.333 0.793,-0.708 0.709,-0.766 0.68,-0.793 0.652,-0.794 0.624,-0.85 0.567,-0.879 0.538,-0.964 0.482,-0.964 0.482,-0.992 0.397,-1.077 0.369,-1.077 0.311,-1.162 0.284,-1.191 0.227,-1.247 0.17,-1.276 0.141,-1.304 0.114,-2.778 -0.085,-2.976 -0.255,-3.118 -0.426,-3.317 -4.875,-31.153 -0.199,-1.502 -0.085,-1.389 v -0.623 l -0.028,-0.596 0.057,-0.623 0.056,-0.539 0.085,-0.567 0.114,-0.482 0.142,-0.453 0.141,-0.482 0.199,-0.397 0.198,-0.369 0.227,-0.396 0.255,-0.312 0.567,-0.624 0.624,-0.567 0.652,-0.538 0.708,-0.539 0.794,-0.453 0.822,-0.426 0.879,-0.397 0.907,-0.368 0.34,-0.142 -0.85,-5.556 -19.474,7.172 7.114,45.524 0.284,2.098 0.198,2.041 0.085,1.899 v 1.843 l -0.141,1.729 -0.199,1.644 -0.312,1.587 -0.198,0.737 -0.227,0.737 -0.283,0.681 -0.284,0.708 -0.311,0.652 -0.369,0.624 -0.397,0.595 -0.425,0.567 -0.482,0.539 -0.482,0.51 -0.538,0.51 -0.596,0.454 -1.275,0.878 -1.389,0.737 -1.531,0.652 -1.134,0.369 -1.077,0.255 -1.049,0.142 -0.992,0.056 -0.935,-0.056 -0.879,-0.142 -0.879,-0.255 -0.397,-0.198 -0.397,-0.171 -0.793,-0.481 -0.709,-0.511 -0.68,-0.595 -0.652,-0.709 -0.624,-0.737 -0.567,-0.85 -0.538,-0.879 -0.482,-0.992 -0.454,-1.02 -0.425,-1.078 -0.368,-1.133 -0.369,-1.134 -0.312,-1.191 -0.283,-1.219 -0.255,-1.247 -0.227,-1.304 -4.536,-28.913 -0.198,-1.503 -0.057,-1.389 -0.028,-0.652 v -0.595 l 0.028,-0.595 0.057,-0.567 0.085,-0.539 0.142,-0.51 0.113,-0.453 0.17,-0.454 0.17,-0.425 0.199,-0.369 0.227,-0.368 0.283,-0.34 0.539,-0.624 0.623,-0.567 0.681,-0.538 0.708,-0.511 0.766,-0.482 0.822,-0.425 0.878,-0.397 0.907,-0.368 0.369,-0.114 -0.879,-5.555 -17.405,6.406 h -0.028 l -2.069,0.595 7.115,45.496 0.255,2.126 0.198,2.013 0.085,1.899 v 1.814 l -0.141,1.701 -0.227,1.587 -0.34,1.531 -0.199,0.737 -0.226,0.68 -0.284,0.681 -0.283,0.68 -0.341,0.595 -0.368,0.596 -0.425,0.538 -0.425,0.539 -0.511,0.51 -0.482,0.454 -0.567,0.453 -0.623,0.397 -1.276,0.765 -1.445,0.624 -1.588,0.51 -1.19,0.284 -1.191,0.198 -1.134,0.057 -1.049,-0.057 -1.02,-0.142 -0.964,-0.255 -0.935,-0.368 -0.425,-0.255 -0.426,-0.256 -0.85,-0.595 -0.765,-0.623 -0.737,-0.709 -0.709,-0.822 -0.652,-0.851 -0.595,-0.935 -0.567,-1.02 -0.511,-1.106 -0.51,-1.162 -0.453,-1.162 -0.425,-1.248 -0.397,-1.247 -0.34,-1.332 -0.284,-1.304 -0.283,-1.361 -0.256,-1.417 -4.337,-27.865 -0.17,-1.389 -0.056,-0.652 -0.029,-0.623 0.029,-0.595 0.028,-0.596 0.085,-0.538 0.085,-0.539 0.085,-0.453 0.17,-0.511 0.17,-0.397 0.199,-0.425 0.226,-0.368 0.256,-0.369 0.283,-0.34 0.312,-0.312 0.652,-0.538 0.709,-0.482 0.737,-0.51 0.765,-0.426 0.822,-0.368 0.85,-0.369 0.879,-0.311 0.935,-0.284 0.341,-0.113 -0.879,-5.556 z m 116.646,-37.701 -2.013,0.85 -1.927,0.851 -1.786,0.964 -1.673,1.02 -1.53,1.134 -1.049,0.879 -0.029,0.028 -0.368,0.255 -1.276,1.219 -1.19,1.332 -0.567,0.709 -0.482,0.68 -0.425,0.709 -0.397,0.709 -0.369,0.708 -0.311,0.737 -0.284,0.766 -0.227,0.765 -0.198,0.737 -0.17,0.822 -0.085,0.765 -0.057,0.822 v 0.822 0.823 l 0.085,0.822 0.085,0.878 0.17,0.822 0.199,0.822 0.198,0.737 0.227,0.681 0.283,0.623 0.312,0.511 0.17,0.283 0.142,0.198 0.198,0.227 0.199,0.199 0.397,0.34 0.397,0.34 0.368,0.255 0.425,0.227 0.425,0.198 0.426,0.17 0.397,0.114 0.453,0.056 0.425,0.029 0.397,0.028 h 0.425 l 0.397,-0.028 0.369,-0.029 0.397,-0.056 0.311,-0.085 0.369,-0.142 -0.227,-1.729 -0.142,-1.644 -0.028,-1.644 0.028,-1.616 0.17,-1.587 0.029,-0.199 v -0.085 l 0.17,-1.276 0.34,-1.502 0.425,-1.502 0.255,-0.737 0.284,-0.709 0.34,-0.624 0.368,-0.68 0.397,-0.623 0.454,-0.567 0.453,-0.596 0.567,-0.538 0.539,-0.51 0.595,-0.482 0.652,-0.454 0.68,-0.453 1.474,-0.794 1.616,-0.68 1.446,-0.482 1.36,-0.312 1.304,-0.227 1.248,-0.057 1.162,0.057 1.105,0.227 0.511,0.142 0.51,0.198 0.51,0.227 0.454,0.255 0.878,0.595 0.397,0.312 0.397,0.368 0.369,0.397 0.34,0.397 0.312,0.397 0.311,0.482 0.255,0.482 0.256,0.51 0.226,0.51 0.199,0.567 0.198,0.539 0.17,0.623 0.142,0.624 0.113,0.624 0.085,0.822 0.057,0.765 0.057,0.794 -0.029,0.737 -0.056,0.708 -0.114,0.709 -0.17,0.652 -0.17,0.68 -0.255,0.652 -0.283,0.652 -0.34,0.709 -0.426,0.68 -0.453,0.709 -0.51,0.765 -0.596,0.737 -0.623,0.794 -1.474,1.672 -1.786,1.9 -2.069,2.069 -2.353,2.268 -2.466,2.494 -2.296,2.41 -1.985,2.324 -1.786,2.154 -0.028,0.085 -0.028,0.057 -0.737,0.907 -0.709,1.077 -0.68,1.077 -0.595,1.049 -0.539,1.077 -0.454,1.106 -0.425,1.105 -0.34,1.106 -0.283,1.106 -0.227,1.19 -0.142,1.191 -0.057,1.247 -0.028,1.304 0.057,1.304 0.113,1.389 0.199,1.389 0.198,1.077 0.227,1.077 0.283,0.992 0.312,0.936 0.369,0.907 0.368,0.822 0.454,0.822 0.453,0.765 0.51,0.709 0.567,0.652 0.596,0.595 0.652,0.567 0.651,0.482 0.709,0.453 0.765,0.454 0.794,0.34 1.644,0.567 0.114,0.085 0.028,-0.028 1.644,0.34 1.871,0.17 h 1.928 l 2.069,-0.17 2.126,-0.397 2.239,-0.567 2.325,-0.794 1.927,-0.793 1.814,-0.794 1.673,-0.935 1.502,-0.964 1.417,-1.077 1.219,-1.078 1.106,-1.162 0.51,-0.623 0.454,-0.624 0.822,-1.304 0.708,-1.247 0.284,-0.652 0.255,-0.595 0.227,-0.652 0.198,-0.624 0.142,-0.624 0.113,-0.652 0.114,-0.623 0.028,-0.624 0.057,-0.652 -0.029,-0.623 -0.056,-0.624 -0.085,-0.624 -0.17,-0.878 -0.114,-0.369 -0.113,-0.425 -0.114,-0.369 -0.17,-0.34 -0.141,-0.312 -0.199,-0.34 -0.17,-0.312 -0.227,-0.255 -0.198,-0.312 -0.255,-0.226 -0.227,-0.255 -0.255,-0.199 -0.312,-0.198 -0.283,-0.199 -0.312,-0.141 -0.284,-0.17 -0.34,-0.114 -0.368,-0.113 -0.709,-0.114 -0.765,-0.056 -0.822,0.056 -0.851,0.17 -0.907,0.227 -0.964,0.312 0.227,1.587 0.142,1.559 0.028,1.503 -0.057,1.445 -0.141,1.361 -0.199,1.304 -0.141,0.624 -0.199,0.623 -0.17,0.567 -0.198,0.567 -0.227,0.595 -0.284,0.511 -0.283,0.51 -0.312,0.51 -0.34,0.482 -0.34,0.425 -0.397,0.425 -0.397,0.426 -0.425,0.368 -0.454,0.369 -0.992,0.708 -1.077,0.539 -1.19,0.51 -1.361,0.482 -1.304,0.312 -1.219,0.198 -1.105,0.057 -1.049,-0.057 -0.482,-0.085 -0.454,-0.085 -0.425,-0.142 -0.453,-0.17 -0.369,-0.255 -0.368,-0.227 -0.709,-0.566 -0.312,-0.284 -0.312,-0.34 -0.283,-0.34 -0.284,-0.34 -0.255,-0.397 -0.227,-0.397 -0.226,-0.454 -0.199,-0.453 -0.198,-0.454 -0.17,-0.482 -0.284,-1.02 -0.198,-1.134 -0.114,-0.624 -0.028,-0.623 -0.057,-0.595 v -0.596 l 0.057,-0.623 0.057,-0.567 0.085,-0.567 0.085,-0.567 0.17,-0.539 0.17,-0.538 0.17,-0.511 0.227,-0.538 0.255,-0.51 0.255,-0.511 0.34,-0.482 0.312,-0.51 0.765,-1.02 0.879,-1.077 2.155,-2.41 2.692,-2.693 3.204,-3.033 2.579,-2.466 2.325,-2.409 2.04,-2.296 1.73,-2.155 0.765,-1.077 0.737,-1.049 0.624,-1.105 0.595,-1.077 0.51,-1.078 0.425,-1.133 0.397,-1.106 0.312,-1.106 0.255,-1.133 0.199,-1.163 0.113,-1.218 0.057,-1.219 v -1.276 l -0.057,-1.276 -0.113,-1.332 -0.199,-1.389 -0.227,-1.275 -0.226,-1.191 -0.341,-1.162 -0.34,-1.049 -0.368,-1.02 -0.425,-1.021 -0.482,-0.907 -0.511,-0.85 -0.51,-0.794 -0.595,-0.737 -0.624,-0.709 -0.68,-0.623 -0.709,-0.596 -0.765,-0.51 -0.794,-0.453 -0.822,-0.397 -1.757,-0.624 -1.871,-0.453 -1.956,-0.227 h -2.041 l -2.154,0.198 -2.268,0.369 -2.324,0.595 z m 48.642,-17.802 -1.417,0.454 v 0 l -0.652,0.255 -1.871,0.907 -1.701,0.992 -1.53,1.106 -1.389,1.219 -0.624,0.595 -0.567,0.68 -0.538,0.624 -0.511,0.709 -0.453,0.708 -0.397,0.737 -0.369,0.766 -0.34,0.822 -0.283,0.85 -0.255,0.879 -0.227,0.935 -0.199,0.964 -0.141,1.049 -0.085,1.049 -0.114,2.239 0.057,2.438 0.227,2.579 0.368,2.75 6.888,44.107 -8.504,3.118 0.851,5.273 0.51,-0.199 0.51,-0.113 0.539,-0.114 0.595,-0.113 0.596,-0.057 0.595,-0.028 0.623,-0.057 0.652,0.029 0.624,0.056 0.652,0.057 0.595,0.17 0.624,0.17 0.567,0.227 0.567,0.283 0.567,0.341 0.538,0.34 0.539,0.453 0.567,0.482 0.51,0.539 0.51,0.538 0.539,0.596 0.453,0.652 0.454,0.68 0.453,0.709 0.426,0.793 0.453,0.794 0.425,0.907 0.426,0.907 0.822,2.041 0.793,2.239 5.131,-1.899 -2.523,-16.214 4.28,-1.559 v 0 l 10.63,-2.948 -1.162,-7.512 -10.63,2.948 v 0 l -4.28,1.588 -6.973,-44.504 -0.227,-1.616 -0.113,-1.559 -0.057,-1.503 0.085,-1.36 0.057,-0.68 0.085,-0.652 0.085,-0.596 0.141,-0.623 0.142,-0.567 0.199,-0.567 0.17,-0.51 0.226,-0.539 0.256,-0.482 0.255,-0.482 0.283,-0.425 0.255,-0.454 0.312,-0.396 0.284,-0.369 v 0 l 0.028,-0.057 0.312,-0.311 0.397,-0.312 0.368,-0.284 0.369,-0.311 0.822,-0.482 0.907,-0.397 0.935,-0.284 0.992,-0.283 0.964,-0.199 0.964,-0.198 0.907,-0.142 3.628,-0.312 -0.907,-5.782 -0.397,-0.114 -0.482,-0.056 -1.077,-0.114 h -1.275 l -1.474,0.057 -1.503,0.142 -1.502,0.198 -1.446,0.227 z m 41.981,-10.006 -3.061,0.652 -2.863,0.907 -2.636,1.162 -2.438,1.418 -1.134,0.822 -1.077,0.879 -0.85,0.765 v 0 l -0.171,0.198 -0.963,1.106 -0.879,1.19 -0.85,1.219 -0.766,1.304 -0.737,1.332 -0.68,1.418 -0.595,1.502 -0.567,1.503 -0.454,1.615 -0.425,1.616 -0.34,1.729 -0.284,1.786 -0.198,1.814 -0.227,3.827 0.057,4.053 0.34,4.309 0.595,4.507 0.794,4.451 0.964,4.081 1.162,3.742 1.304,3.402 0.709,1.531 0.793,1.502 0.766,1.361 0.85,1.275 0.879,1.247 0.935,1.106 0.964,1.02 1.02,0.936 1.049,0.85 1.077,0.766 1.134,0.68 1.162,0.623 1.219,0.511 0.596,0.226 v 0.057 l 0.68,0.199 1.304,0.481 1.332,0.341 2.863,0.567 3.005,0.198 3.146,-0.085 3.317,-0.397 3.061,-0.652 2.835,-0.907 2.636,-1.191 2.466,-1.417 1.134,-0.794 0.936,-0.737 v 0 l 0.141,-0.141 1.021,-0.794 0.992,-0.85 0.935,-0.936 0.879,-1.02 0.822,-1.106 0.765,-1.134 0.709,-1.219 0.624,-1.303 0.623,-1.361 0.482,-1.446 0.425,-1.502 0.369,-1.588 0.283,-1.615 0.227,-1.729 0.255,-3.629 -0.028,-3.94 -0.312,-4.195 -0.595,-4.451 -0.822,-4.507 -0.964,-4.195 -1.162,-3.855 -1.332,-3.572 -0.766,-1.672 -0.765,-1.588 -0.822,-1.53 -0.851,-1.446 -0.907,-1.332 -0.963,-1.247 -0.993,-1.248 -1.048,-1.105 -1.078,-1.049 -1.105,-0.964 -1.191,-0.879 -1.19,-0.85 -1.247,-0.765 -1.304,-0.652 -0.511,-0.199 v -0.028 l -0.822,-0.312 -1.332,-0.397 -2.835,-0.538 -3.004,-0.227 -3.175,0.085 z m 1.304,6.832 2.126,-0.255 1.021,-0.029 0.992,0.057 0.964,0.142 0.907,0.17 0.935,0.226 0.851,0.312 0.85,0.397 0.794,0.397 0.765,0.539 0.737,0.566 0.709,0.652 0.652,0.709 0.652,0.765 0.623,0.851 0.596,0.907 0.566,0.964 0.737,1.502 v 0.057 l 0.341,0.567 1.02,2.438 0.907,2.636 0.851,2.919 0.765,3.09 0.709,3.345 0.595,3.572 0.51,3.571 0.369,3.374 0.198,3.146 0.057,2.92 -0.114,2.693 -0.255,2.437 -0.113,0.567 v 0 l -0.284,1.73 -0.255,1.105 -0.283,1.02 -0.34,0.964 -0.369,0.936 -0.453,0.878 -0.482,0.794 -0.511,0.794 -0.595,0.709 -0.652,0.651 -0.68,0.624 -0.737,0.567 -0.765,0.51 -0.851,0.482 -0.879,0.397 -0.907,0.368 -0.992,0.312 -2.097,0.454 -2.155,0.255 -0.992,0.028 -0.992,-0.056 -0.964,-0.114 -0.935,-0.17 -0.907,-0.227 -0.851,-0.311 -0.822,-0.369 -0.793,-0.397 -0.766,-0.51 -0.737,-0.567 -0.708,-0.595 -0.681,-0.681 -0.652,-0.765 -0.567,-0.822 -0.595,-0.879 -0.567,-0.963 -1.077,-2.07 -1.021,-2.296 -0.368,-0.964 -0.028,-0.085 -0.482,-1.502 -0.851,-2.806 -0.765,-3.033 -0.68,-3.317 -0.624,-3.543 -0.51,-3.6 -0.34,-3.402 -0.227,-3.203 -0.057,-3.033 0.029,-1.417 v -0.085 l 0.085,-1.276 0.226,-2.579 0.397,-2.353 0.227,-1.106 0.312,-1.049 0.34,-1.02 0.368,-0.935 0.426,-0.908 0.482,-0.822 0.538,-0.793 0.567,-0.737 0.624,-0.652 0.68,-0.652 0.737,-0.567 0.794,-0.539 0.822,-0.453 0.85,-0.425 0.936,-0.369 0.963,-0.312 z m 30.189,-8.674 0.851,5.584 h 0.368 l 0.992,0.057 0.964,0.085 0.936,0.141 0.907,0.199 0.878,0.255 0.851,0.312 0.822,0.34 0.822,0.397 0.368,0.226 0.369,0.284 0.34,0.283 0.312,0.341 0.312,0.396 0.311,0.397 0.284,0.425 0.255,0.482 0.255,0.511 0.227,0.567 0.198,0.566 0.227,0.624 0.312,1.332 0.283,1.503 6.435,41.13 0.17,1.389 0.057,0.681 0.028,0.595 -0.028,0.567 -0.029,0.567 -0.056,0.482 -0.114,0.453 -0.113,0.454 -0.142,0.425 -0.198,0.34 -0.199,0.369 -0.255,0.311 -0.226,0.256 -0.312,0.255 -0.312,0.198 -0.68,0.369 -0.737,0.311 -0.766,0.227 -0.822,0.227 -0.822,0.17 -0.907,0.085 -0.907,0.028 -0.964,0.029 -0.368,-0.029 0.878,5.585 11.226,0.226 v 0 l 7.058,0.851 0.198,-12.813 0.596,0.085 1.077,1.985 1.134,1.984 1.105,1.871 1.134,1.786 0.595,0.878 0.624,0.794 0.057,0.113 0.028,0.057 0.567,0.652 0.652,0.794 0.68,0.765 0.765,0.765 0.737,0.652 0.794,0.652 0.822,0.624 0.907,0.595 0.936,0.511 0.992,0.453 1.077,0.454 1.162,0.425 1.191,0.312 1.219,0.311 1.53,0.312 0.993,0.142 v 0 l 0.453,0.113 1.247,0.199 1.163,0.113 1.048,0.028 0.907,-0.085 0.822,-0.198 0.397,-0.142 0.34,-0.198 0.312,-0.199 0.284,-0.226 0.255,-0.255 0.227,-0.256 0.226,-0.311 0.17,-0.312 0.171,-0.34 0.113,-0.397 0.113,-0.369 0.057,-0.453 0.085,-0.397 0.028,-0.51 v -0.454 l -0.028,-0.51 -0.028,-0.567 -0.114,-0.567 -0.056,-0.482 -0.114,-0.51 -0.141,-0.51 -0.142,-0.482 -0.142,-0.51 -0.198,-0.482 -0.17,-0.454 -0.227,-0.482 -0.227,-0.482 -0.227,-0.453 -0.283,-0.482 -0.284,-0.425 -0.311,-0.482 -0.284,-0.425 -0.68,-0.879 -0.397,-0.425 -0.369,-0.397 -0.425,-0.397 -0.425,-0.425 -0.425,-0.34 -0.482,-0.341 -1.049,-0.737 -1.077,-0.623 -1.191,-0.595 -1.275,-0.567 -0.596,-0.199 v 0 l -0.793,-0.198 0.17,1.304 0.142,1.19 0.056,1.106 v 0.992 l -0.056,0.879 -0.085,0.793 -0.085,0.369 -0.086,0.312 -0.113,0.311 -0.113,0.284 -0.142,0.255 -0.142,0.227 -0.198,0.198 -0.17,0.199 -0.227,0.17 -0.227,0.17 -0.255,0.113 -0.255,0.114 -0.284,0.056 -0.311,0.029 -0.312,0.056 -0.34,0.029 -0.737,-0.057 -0.794,-0.142 -0.794,-0.227 -0.793,-0.311 -0.397,-0.17 -0.369,-0.199 -0.368,-0.255 -0.369,-0.198 -0.397,-0.312 -0.34,-0.284 -0.368,-0.311 -0.369,-0.312 -0.34,-0.369 -0.368,-0.368 -0.652,-0.794 -0.652,-0.879 -0.624,-0.907 -0.624,-0.964 -0.311,-0.481 v -0.029 l -0.284,-0.453 -0.567,-0.992 -0.567,-1.049 -0.538,-1.106 -0.511,-1.134 -0.935,-2.324 -0.879,-2.381 -0.793,-2.381 -0.737,-2.438 -0.596,-2.381 -0.567,-2.24 -0.425,-2.097 -0.34,-1.984 -3.26,-20.75 -0.142,-1.361 -0.056,-0.623 -0.029,-0.596 0.029,-0.567 0.028,-0.538 0.085,-0.482 0.085,-0.482 0.114,-0.397 0.17,-0.397 0.17,-0.34 0.198,-0.312 0.227,-0.255 0.283,-0.255 0.312,-0.198 0.284,-0.17 0.708,-0.255 0.539,-0.114 v 0 l 0.17,-0.085 0.737,-0.113 0.794,-0.029 0.822,0.057 0.878,0.085 0.879,0.114 0.964,0.198 3.231,0.709 -0.85,-5.556 z m 76.536,20.041 -2.722,-1.446 -2.494,-1.049 -2.296,-0.68 -0.992,-0.199 v 0 h -0.085 l -1.106,0.029 -1.02,0.113 -0.992,0.198 -0.907,0.312 -0.908,0.397 -0.822,0.482 -0.765,0.567 -0.737,0.652 -0.68,0.765 -0.624,0.822 -0.538,0.964 -0.511,0.992 -0.425,1.134 -0.368,1.191 -0.284,1.275 -0.255,1.361 -0.17,1.134 v 0 l -0.028,0.283 -0.227,3.232 0.028,3.486 0.284,3.827 0.567,4.139 0.793,4.507 0.964,4.308 1.134,4.054 1.275,3.883 0.312,0.794 v 0.057 l 1.106,2.863 0.765,1.786 0.766,1.729 0.85,1.701 0.879,1.7 0.935,1.588 0.936,1.559 0.992,1.502 0.992,1.446 1.049,1.389 1.048,1.304 1.106,1.275 1.162,1.248 1.134,1.162 1.191,1.134 1.218,1.02 0.964,0.794 v 0.057 l 0.284,0.226 2.437,2.07 2.552,1.927 2.664,1.673 2.41,1.332 2.239,0.964 1.559,0.538 v 0 l 0.482,0.17 1.757,0.511 0.794,0.141 0.794,0.057 0.737,-0.028 0.68,-0.114 0.652,-0.227 0.624,-0.283 0.567,-0.369 0.538,-0.453 0.511,-0.539 0.425,-0.68 0.368,-0.709 0.312,-0.822 0.312,-0.935 0.227,-0.992 0.17,-1.077 0.113,-1.191 0.142,-2.636 -0.114,-3.033 -0.311,-3.373 -0.511,-3.742 -0.963,-6.066 -14.032,-10.262 v 0 l -14.088,-8.277 v 0 l -5.386,-2.466 -0.425,-3.402 -0.255,-3.118 -0.142,-2.834 0.057,-2.523 0.198,-2.211 0.17,-1.021 0.199,-0.907 0.255,-0.85 0.255,-0.766 0.34,-0.708 0.369,-0.624 0.396,-0.567 0.426,-0.482 0.028,-0.028 v 0 l 0.397,-0.34 0.51,-0.284 0.51,-0.255 0.539,-0.141 0.595,-0.114 0.595,-0.028 0.681,0.028 0.68,0.114 0.737,0.17 0.765,0.226 1.645,0.709 1.757,0.935 1.332,0.823 1.276,0.878 1.247,0.936 0.113,0.085 v 0.028 l 1.021,0.992 1.105,1.134 1.049,1.219 1.049,1.247 1.021,1.332 0.963,1.361 0.907,1.304 0.851,1.332 0.794,1.276 0.765,1.247 0.709,1.276 0.652,1.219 0.595,1.247 h 0.142 l 0.141,-0.028 0.142,-0.029 0.113,-0.085 0.114,-0.113 0.141,-0.085 0.114,-0.17 0.085,-0.17 0.113,-0.199 0.057,-0.227 0.028,-0.283 0.029,-0.284 v -0.311 -0.369 l -0.029,-0.397 -0.056,-0.425 -0.057,-0.312 -0.085,-0.368 -0.085,-0.34 -0.114,-0.397 -0.113,-0.397 -0.142,-0.425 -0.311,-0.822 -0.369,-0.936 -0.425,-0.935 -0.482,-1.021 -0.539,-1.048 -0.623,-1.078 -0.652,-1.133 -0.709,-1.134 -0.794,-1.163 -0.822,-1.162 -0.878,-1.19 -0.936,-1.191 -0.992,-1.219 -1.049,-1.219 -1.105,-1.219 -1.134,-1.162 -1.219,-1.134 -1.332,-1.048 -1.389,-0.993 -1.446,-0.935 z m 16.356,49.181 0.368,2.551 0.284,2.381 0.17,2.154 0.085,2.013 -0.029,1.814 -0.085,1.644 -0.198,1.417 -0.312,1.248 -0.17,0.567 -0.198,0.51 -0.284,0.397 -0.283,0.312 -0.312,0.311 -0.142,0.085 v 0 l -0.227,0.114 -0.453,0.198 -0.454,0.114 -0.482,0.028 h -0.538 l -0.595,-0.113 -0.596,-0.114 -0.652,-0.227 -0.68,-0.283 -1.446,-0.794 -1.389,-0.907 -0.68,-0.482 -0.68,-0.567 -0.624,-0.567 -0.652,-0.595 -0.624,-0.652 -0.595,-0.68 -0.623,-0.709 -0.567,-0.765 -0.567,-0.737 -0.567,-0.851 -0.567,-0.85 H 496.8 v 0 l -0.539,-0.85 -0.539,-0.879 -0.538,-0.936 -1.049,-1.927 -0.964,-2.069 -0.907,-2.183 -0.85,-2.324 -0.794,-2.467 -0.737,-2.579 -0.68,-2.693 -0.596,-2.835 z"
         transform="translate(0,1.1220472e-5)"
         clip-rule="evenodd"
         id="path4" />
    </clipPath>
    <clipPath
       clipPathUnits="userSpaceOnUse"
       id="clipPath133">
      <path
         d="m 93.316,678.415 -3.09,-1.304 -2.891,-1.049 -0.539,-0.141 v 0 l -2.069,-0.907 -2.466,-0.822 -2.268,-0.567 -2.097,-0.255 -1.956,-0.029 -1.815,0.199 -0.481,0.141 v 0 l -1.078,0.199 -1.389,0.538 -1.247,0.766 -1.134,1.02 -0.935,1.247 -0.85,1.446 -0.681,1.701 -0.538,1.956 -0.426,2.154 -0.255,2.353 -0.17,2.551 v 2.778 l 0.114,2.948 0.226,3.175 0.369,3.316 0.51,3.572 0.624,3.572 0.708,3.543 0.794,3.515 0.936,3.487 1.02,3.515 1.106,3.429 1.247,3.459 1.304,3.43 1.417,3.401 1.531,3.345 1.587,3.232 1.701,3.174 1.786,3.119 1.899,3.089 1.956,2.977 0.879,1.275 v 0.029 l 1.275,1.53 2.268,2.637 2.409,2.551 2.438,2.381 2.551,2.296 2.665,2.183 1.502,1.133 v 0.057 l 1.276,0.709 2.948,1.587 3.09,1.503 2.891,1.275 2.693,1.049 1.276,0.397 v 0 l 1.275,0.255 2.381,0.368 2.126,0.142 1.956,-0.028 1.701,-0.227 1.502,-0.453 1.276,-0.624 1.02,-0.652 v 0 l 0.085,-0.085 0.482,-0.482 0.425,-0.482 0.397,-0.538 0.312,-0.567 0.255,-0.567 0.227,-0.624 0.17,-0.652 0.113,-0.652 0.057,-0.709 v -0.737 l -0.057,-0.765 -0.085,-0.765 -0.085,-0.511 -0.141,-0.51 -0.114,-0.51 -0.17,-0.482 -0.17,-0.538 -0.227,-0.454 -0.226,-0.482 -0.256,-0.453 -0.283,-0.482 -0.284,-0.454 -0.311,-0.425 -0.34,-0.454 -0.369,-0.425 -0.397,-0.425 -0.397,-0.397 -0.425,-0.397 -0.623,-0.482 v -0.028 l -0.284,-0.312 -0.879,-0.765 -0.935,-0.709 -0.992,-0.652 -0.992,-0.623 -1.021,-0.539 -1.049,-0.425 -1.105,-0.397 0.142,0.992 0.113,1.021 0.028,0.963 v 0.936 l -0.028,0.964 -0.085,0.907 -0.17,0.85 -0.17,0.879 -0.227,0.822 -0.284,0.737 -0.368,0.737 -0.425,0.624 -0.482,0.623 -0.567,0.51 -0.624,0.454 -0.68,0.425 -0.765,0.312 -0.255,0.085 v 0 l -0.567,0.028 -0.879,0.029 -0.964,-0.114 -1.077,-0.227 -1.106,-0.34 -1.218,-0.425 -1.276,-0.538 -3.345,-1.673 -3.146,-1.899 -0.426,-0.255 v -0.029 l -1.02,-0.878 -1.361,-1.219 -1.36,-1.276 -1.276,-1.332 -1.247,-1.361 -1.191,-1.445 -1.162,-1.474 -1.105,-1.531 -1.078,-1.587 -1.02,-1.645 -0.964,-1.644 -0.935,-1.729 -0.879,-1.786 -0.85,-1.814 -0.879,-2.012 -0.028,-0.057 -0.681,-1.758 -1.417,-4.025 -1.276,-4.195 -1.219,-4.394 -1.048,-4.535 -0.964,-4.706 -0.822,-4.875 -0.652,-4.734 -0.454,-4.309 -0.255,-3.94 v -3.487 l 0.17,-3.146 0.425,-2.665 0.142,-0.737 v -0.028 l 0.142,-0.425 0.368,-1.162 0.454,-1.021 0.482,-0.964 0.567,-0.85 0.623,-0.709 0.709,-0.623 0.794,-0.454 0.85,-0.368 0.936,-0.255 1.02,-0.114 h 1.106 l 1.162,0.114 1.219,0.226 1.417,0.482 v 0 l 1.417,0.255 3.203,0.992 3.515,1.446 1.559,0.737 1.531,0.737 1.531,0.822 1.275,0.737 v 0 l 0.227,0.085 1.531,0.709 1.446,0.709 1.36,0.765 1.276,0.794 3.316,21.259 0.17,1.361 0.057,0.624 0.028,0.567 v 0.567 l -0.028,0.51 -0.085,0.482 -0.057,0.397 -0.141,0.396 -0.142,0.341 -0.17,0.311 -0.17,0.255 -0.227,0.227 -0.255,0.199 -0.312,0.141 -0.283,0.085 -0.652,0.142 -0.681,0.057 -0.737,0.028 h -0.623 v 0 l -0.114,-0.056 -0.765,-0.171 -0.822,-0.283 -0.822,-0.312 -0.879,-0.368 -0.425,-0.199 0.879,5.556 3.855,1.758 v 0 l 14.173,4.705 v 0 l 11.48,2.523 -0.85,-5.556 -0.454,-0.085 -0.793,-0.198 -0.794,-0.256 -0.794,-0.283 -0.708,-0.312 -0.737,-0.397 -0.737,-0.453 -0.652,-0.454 -0.681,-0.51 -0.311,-0.283 -0.341,-0.341 -0.283,-0.34 -0.284,-0.368 -0.283,-0.425 -0.255,-0.454 -0.227,-0.454 -0.255,-0.538 -0.227,-0.51 -0.198,-0.596 -0.369,-1.219 -0.312,-1.36 -0.283,-1.503 -3.713,-23.726 -3.119,-2.097 -3.089,-2.211 -3.118,-1.984 -3.09,-1.843 -3.203,-1.701 -3.26,-1.615 -3.345,-1.786 z m 60.775,13.181 -3.147,0.057 -2.919,0.397 -2.665,0.68 -1.275,0.425 -0.312,0.17 v 0 l -0.879,0.256 -1.134,0.51 -1.077,0.567 -1.021,0.652 -0.992,0.708 -0.907,0.794 -0.878,0.879 -0.794,0.964 -0.766,1.048 -0.68,1.106 -0.623,1.219 -0.567,1.219 -0.511,1.332 -0.396,1.361 -0.369,1.474 -0.113,0.453 v 0.029 l -0.17,0.992 -0.227,1.53 -0.227,3.289 v 3.571 l 0.283,3.855 0.539,4.139 0.822,4.479 0.964,4.28 1.134,4.025 1.304,3.799 1.445,3.515 v 0 l 0.029,0.028 0.822,1.616 0.822,1.559 0.907,1.502 0.935,1.446 0.992,1.36 1.021,1.304 1.049,1.248 1.077,1.162 1.134,1.105 1.134,0.992 1.19,0.993 1.219,0.907 1.247,0.793 1.304,0.794 1.304,0.652 0.567,0.283 v 0.029 l 0.794,0.283 2.834,0.766 2.92,0.51 3.118,0.227 2.778,-0.057 2.013,-0.227 v 0 l 0.595,-0.142 2.41,-0.765 2.211,-1.02 1.02,-0.567 0.992,-0.652 0.936,-0.709 0.878,-0.765 0.822,-0.822 0.822,-0.907 0.737,-0.936 0.709,-1.02 0.624,-1.078 0.141,-0.255 v 0 l 0.426,-0.935 0.51,-1.247 0.425,-1.304 0.397,-1.361 0.34,-1.417 0.255,-1.446 0.199,-1.531 0.255,-3.203 v -3.401 l -0.255,-3.6 -0.482,-3.827 -0.964,-6.066 -5.556,0.935 v 0 l -14.258,0.851 h -0.029 l -14.258,-0.341 v 0 l -5.414,-0.623 -0.397,-3.458 -0.255,-3.175 -0.085,-2.977 0.085,-2.664 0.255,-2.41 0.199,-1.133 0.226,-1.049 0.284,-0.964 0.312,-0.907 0.368,-0.851 0.425,-0.793 0.426,-0.737 0.141,-0.199 v 0 l 0.369,-0.51 0.51,-0.68 0.595,-0.596 0.596,-0.595 0.652,-0.51 0.708,-0.482 0.709,-0.397 0.765,-0.368 0.822,-0.312 0.851,-0.255 0.907,-0.227 1.899,-0.255 2.041,-0.057 1.531,0.085 0.481,0.085 v 0.029 l 1.021,-0.029 1.417,0.142 1.418,0.227 1.304,0.312 1.303,0.425 1.276,0.51 1.219,0.595 1.19,0.652 1.078,0.681 1.048,0.737 0.936,0.708 0.907,0.766 0.85,0.822 0.567,0.595 v 0.057 l 0.199,0.141 0.708,0.794 0.17,-0.142 0.171,-0.17 0.198,-0.198 0.142,-0.227 0.141,-0.255 0.171,-0.227 0.17,-0.34 0.113,-0.312 0.113,-0.312 0.114,-0.34 0.056,-0.368 0.057,-0.369 v -0.368 -0.397 l -0.028,-0.425 -0.057,-0.426 -0.057,-0.311 -0.085,-0.369 -0.085,-0.312 -0.113,-0.34 -0.142,-0.34 -0.142,-0.34 -0.368,-0.624 -0.425,-0.68 -0.51,-0.652 -0.567,-0.652 -0.624,-0.68 -0.709,-0.624 -0.17,-0.057 v -0.028 l -0.623,-0.567 -0.879,-0.68 -0.936,-0.624 -0.963,-0.567 -1.077,-0.567 -1.163,-0.482 -1.19,-0.51 -1.304,-0.425 -1.332,-0.369 -1.389,-0.311 -1.474,-0.199 -1.559,-0.17 -1.616,-0.085 -1.673,-0.17 z m 18.227,42.492 0.34,2.579 0.283,2.466 0.114,2.296 0.028,2.24 -0.113,2.069 -0.171,1.984 -0.34,1.786 -0.425,1.701 -0.255,0.822 -0.283,0.765 -0.341,0.681 -0.396,0.652 -0.397,0.623 -0.454,0.51 -0.538,0.539 -0.539,0.454 -0.567,0.396 -0.34,0.227 v 0 l -0.284,0.142 -0.68,0.227 -0.709,0.255 -0.765,0.142 -0.794,0.085 -1.7,0.085 -1.588,-0.142 -0.793,-0.142 -0.766,-0.198 -0.737,-0.227 -0.737,-0.255 -0.709,-0.34 -0.708,-0.369 -0.68,-0.397 -0.681,-0.482 -0.652,-0.453 -0.623,-0.595 -0.624,-0.567 -0.595,-0.539 v -0.057 l -0.029,-0.056 -0.595,-0.737 -0.567,-0.794 -1.105,-1.701 -1.049,-1.814 -0.964,-1.984 -0.879,-2.154 -0.85,-2.325 -0.765,-2.466 -0.709,-2.608 -0.624,-2.778 z m 8.22,-43.342 0.879,5.556 1.531,-0.255 0.963,-0.142 0.936,-0.085 0.907,-0.028 0.879,0.028 0.822,0.113 0.793,0.17 0.737,0.199 0.709,0.283 0.368,0.142 0.312,0.255 0.312,0.227 0.284,0.283 0.311,0.341 0.256,0.368 0.255,0.397 0.255,0.453 0.227,0.482 0.226,0.539 0.17,0.539 0.17,0.595 0.369,1.332 0.255,1.474 6.435,41.159 0.17,1.389 0.056,1.304 v 0.567 0.595 l -0.056,0.511 -0.085,0.481 -0.114,0.482 -0.085,0.454 -0.17,0.397 -0.17,0.397 -0.227,0.368 -0.226,0.312 -0.255,0.312 -0.284,0.255 -0.595,0.51 -0.681,0.425 -0.68,0.369 -0.765,0.397 -0.794,0.311 -0.85,0.255 -0.907,0.227 -0.936,0.17 -0.34,0.057 0.879,5.556 18.425,-3.061 -0.085,-5.16 v -0.141 l -0.085,-5.726 0.595,-0.17 1.162,1.53 1.134,1.333 1.162,1.19 1.134,1.049 1.191,0.879 1.134,0.68 1.19,0.51 0.567,0.199 0.567,0.198 1.191,0.199 1.19,0.17 1.219,0.056 1.219,0.029 1.247,-0.085 1.276,-0.17 1.304,-0.227 1.304,-0.34 1.36,-0.397 1.304,-0.51 1.248,-0.567 1.247,-0.652 1.162,-0.709 1.134,-0.822 1.077,-0.85 1.049,-0.936 v 0 h 0.028 l 0.907,-1.134 0.851,-1.219 0.765,-1.332 0.652,-1.389 0.595,-1.531 0.482,-1.615 0.397,-1.673 0.312,-1.814 0.907,-0.312 1.134,1.446 1.134,1.276 1.162,1.077 1.19,0.963 1.163,0.766 1.218,0.567 1.191,0.425 1.219,0.255 1.219,0.113 1.219,0.029 1.247,-0.029 1.247,-0.085 1.247,-0.198 1.276,-0.283 1.276,-0.369 1.275,-0.425 2.069,-0.879 1.928,-1.02 1.786,-1.134 1.616,-1.333 0.793,-0.708 0.709,-0.766 0.68,-0.793 0.652,-0.794 0.624,-0.85 0.567,-0.879 0.538,-0.964 0.482,-0.964 0.482,-0.992 0.397,-1.077 0.369,-1.077 0.311,-1.162 0.284,-1.191 0.227,-1.247 0.17,-1.276 0.141,-1.304 0.114,-2.778 -0.085,-2.976 -0.255,-3.118 -0.426,-3.317 -4.875,-31.152 -0.199,-1.503 -0.085,-1.389 v -0.623 l -0.028,-0.596 0.057,-0.623 0.056,-0.539 0.085,-0.567 0.114,-0.482 0.142,-0.453 0.141,-0.482 0.199,-0.397 0.198,-0.368 0.227,-0.397 0.255,-0.312 0.567,-0.624 0.624,-0.567 0.652,-0.538 0.708,-0.539 0.794,-0.453 0.822,-0.426 0.879,-0.396 0.907,-0.369 0.34,-0.142 -0.85,-5.556 -19.474,7.172 7.114,45.525 0.284,2.097 0.198,2.041 0.085,1.899 v 1.843 l -0.141,1.729 -0.199,1.644 -0.312,1.587 -0.198,0.737 -0.227,0.738 -0.283,0.68 -0.284,0.708 -0.311,0.652 -0.369,0.624 -0.397,0.595 -0.425,0.567 -0.482,0.539 -0.482,0.51 -0.538,0.51 -0.596,0.454 -1.275,0.879 -1.389,0.737 -1.531,0.652 -1.134,0.368 -1.077,0.255 -1.049,0.142 -0.992,0.057 -0.935,-0.057 -0.879,-0.142 -0.879,-0.255 -0.397,-0.198 -0.397,-0.17 -0.793,-0.482 -0.709,-0.511 -0.68,-0.595 -0.652,-0.708 -0.624,-0.737 -0.567,-0.851 -0.538,-0.879 -0.482,-0.992 -0.454,-1.02 -0.425,-1.077 -0.368,-1.134 -0.369,-1.134 -0.312,-1.191 -0.283,-1.219 -0.255,-1.247 -0.227,-1.304 -4.536,-28.913 -0.198,-1.502 -0.057,-1.389 -0.028,-0.652 v -0.596 l 0.028,-0.595 0.057,-0.567 0.085,-0.538 0.142,-0.511 0.113,-0.453 0.17,-0.454 0.17,-0.425 0.199,-0.369 0.227,-0.368 0.283,-0.34 0.539,-0.624 0.623,-0.567 0.681,-0.538 0.708,-0.511 0.766,-0.481 0.822,-0.426 0.878,-0.396 0.907,-0.369 0.369,-0.113 -0.879,-5.556 -17.405,6.406 h -0.028 l -2.069,0.595 7.115,45.496 0.255,2.126 0.198,2.013 0.085,1.899 v 1.814 l -0.141,1.701 -0.227,1.588 -0.34,1.53 -0.199,0.737 -0.226,0.681 -0.284,0.68 -0.283,0.68 -0.341,0.595 -0.368,0.596 -0.425,0.538 -0.425,0.539 -0.511,0.51 -0.482,0.454 -0.567,0.453 -0.623,0.397 -1.276,0.765 -1.445,0.624 -1.588,0.51 -1.19,0.284 -1.191,0.198 -1.134,0.057 -1.049,-0.057 -1.02,-0.142 -0.964,-0.255 -0.935,-0.368 -0.425,-0.255 -0.426,-0.255 -0.85,-0.596 -0.765,-0.623 -0.737,-0.709 -0.709,-0.822 -0.652,-0.85 -0.595,-0.936 -0.567,-1.02 -0.511,-1.106 -0.51,-1.162 -0.453,-1.162 -0.425,-1.247 -0.397,-1.248 -0.34,-1.332 -0.284,-1.304 -0.283,-1.361 -0.256,-1.417 -4.337,-27.864 -0.17,-1.389 -0.056,-0.652 -0.029,-0.624 0.029,-0.595 0.028,-0.596 0.085,-0.538 0.085,-0.539 0.085,-0.453 0.17,-0.511 0.17,-0.396 0.199,-0.426 0.226,-0.368 0.256,-0.369 0.283,-0.34 0.312,-0.312 0.652,-0.538 0.709,-0.482 0.737,-0.51 0.765,-0.425 0.822,-0.369 0.85,-0.368 0.879,-0.312 0.935,-0.284 0.341,-0.113 -0.879,-5.556 z m 116.646,-37.701 -2.013,0.851 -1.927,0.85 -1.786,0.964 -1.673,1.02 -1.53,1.134 -1.049,0.879 -0.029,0.028 -0.368,0.255 -1.276,1.219 -1.19,1.332 -0.567,0.709 -0.482,0.68 -0.425,0.709 -0.397,0.709 -0.369,0.708 -0.311,0.737 -0.284,0.766 -0.227,0.765 -0.198,0.737 -0.17,0.822 -0.085,0.766 -0.057,0.822 v 0.822 0.822 l 0.085,0.822 0.085,0.878 0.17,0.823 0.199,0.822 0.198,0.737 0.227,0.68 0.283,0.624 0.312,0.51 0.17,0.283 0.142,0.199 0.198,0.226 0.199,0.199 0.397,0.34 0.397,0.34 0.368,0.255 0.425,0.227 0.425,0.198 0.426,0.171 0.397,0.113 0.453,0.057 0.425,0.028 0.397,0.028 h 0.425 l 0.397,-0.028 0.369,-0.028 0.397,-0.057 0.311,-0.085 0.369,-0.142 -0.227,-1.729 -0.142,-1.644 -0.028,-1.644 0.028,-1.616 0.17,-1.587 0.029,-0.199 v -0.085 l 0.17,-1.275 0.34,-1.503 0.425,-1.502 0.255,-0.737 0.284,-0.709 0.34,-0.623 0.368,-0.681 0.397,-0.623 0.454,-0.567 0.453,-0.596 0.567,-0.538 0.539,-0.51 0.595,-0.482 0.652,-0.454 0.68,-0.453 1.474,-0.794 1.616,-0.68 1.446,-0.482 1.36,-0.312 1.304,-0.227 1.248,-0.057 1.162,0.057 1.105,0.227 0.511,0.142 0.51,0.198 0.51,0.227 0.454,0.255 0.878,0.595 0.397,0.312 0.397,0.369 0.369,0.396 0.34,0.397 0.312,0.397 0.311,0.482 0.255,0.482 0.256,0.51 0.226,0.51 0.199,0.567 0.198,0.539 0.17,0.624 0.142,0.623 0.113,0.624 0.085,0.822 0.057,0.765 0.057,0.794 -0.029,0.737 -0.056,0.709 -0.114,0.708 -0.17,0.652 -0.17,0.68 -0.255,0.652 -0.283,0.652 -0.34,0.709 -0.426,0.68 -0.453,0.709 -0.51,0.765 -0.596,0.737 -0.623,0.794 -1.474,1.673 -1.786,1.899 -2.069,2.069 -2.353,2.268 -2.466,2.494 -2.296,2.41 -1.985,2.324 -1.786,2.154 -0.028,0.086 -0.028,0.056 -0.737,0.907 -0.709,1.077 -0.68,1.078 -0.595,1.048 -0.539,1.078 -0.454,1.105 -0.425,1.106 -0.34,1.105 -0.283,1.106 -0.227,1.19 -0.142,1.191 -0.057,1.247 -0.028,1.304 0.057,1.304 0.113,1.389 0.199,1.389 0.198,1.077 0.227,1.077 0.283,0.992 0.312,0.936 0.369,0.907 0.368,0.822 0.454,0.822 0.453,0.765 0.51,0.709 0.567,0.652 0.596,0.595 0.652,0.567 0.651,0.482 0.709,0.454 0.765,0.453 0.794,0.34 1.644,0.567 0.114,0.085 0.028,-0.028 1.644,0.34 1.871,0.17 h 1.928 l 2.069,-0.17 2.126,-0.397 2.239,-0.567 2.325,-0.793 1.927,-0.794 1.814,-0.794 1.673,-0.935 1.502,-0.964 1.417,-1.077 1.219,-1.077 1.106,-1.163 0.51,-0.623 0.454,-0.624 0.822,-1.304 0.708,-1.247 0.284,-0.652 0.255,-0.595 0.227,-0.652 0.198,-0.624 0.142,-0.624 0.113,-0.651 0.114,-0.624 0.028,-0.624 0.057,-0.652 -0.029,-0.623 -0.056,-0.624 -0.085,-0.624 -0.17,-0.878 -0.114,-0.369 -0.113,-0.425 -0.114,-0.369 -0.17,-0.34 -0.141,-0.311 -0.199,-0.341 -0.17,-0.311 -0.227,-0.256 -0.198,-0.311 -0.255,-0.227 -0.227,-0.255 -0.255,-0.199 -0.312,-0.198 -0.283,-0.199 -0.312,-0.141 -0.284,-0.17 -0.34,-0.114 -0.368,-0.113 -0.709,-0.114 -0.765,-0.056 -0.822,0.056 -0.851,0.171 -0.907,0.226 -0.964,0.312 0.227,1.588 0.142,1.559 0.028,1.502 -0.057,1.446 -0.141,1.36 -0.199,1.304 -0.141,0.624 -0.199,0.623 -0.17,0.567 -0.198,0.567 -0.227,0.596 -0.284,0.51 -0.283,0.51 -0.312,0.51 -0.34,0.482 -0.34,0.425 -0.397,0.426 -0.397,0.425 -0.425,0.368 -0.454,0.369 -0.992,0.708 -1.077,0.539 -1.19,0.51 -1.361,0.482 -1.304,0.312 -1.219,0.198 -1.105,0.057 -1.049,-0.057 -0.482,-0.085 -0.454,-0.085 -0.425,-0.141 -0.453,-0.17 -0.369,-0.256 -0.368,-0.226 -0.709,-0.567 -0.312,-0.284 -0.312,-0.34 -0.283,-0.34 -0.284,-0.34 -0.255,-0.397 -0.227,-0.397 -0.226,-0.453 -0.199,-0.454 -0.198,-0.454 -0.17,-0.481 -0.284,-1.021 -0.198,-1.134 -0.114,-0.623 -0.028,-0.624 -0.057,-0.595 v -0.596 l 0.057,-0.623 0.057,-0.567 0.085,-0.567 0.085,-0.567 0.17,-0.539 0.17,-0.538 0.17,-0.51 0.227,-0.539 0.255,-0.51 0.255,-0.51 0.34,-0.482 0.312,-0.511 0.765,-1.02 0.879,-1.077 2.155,-2.41 2.692,-2.693 3.204,-3.033 2.579,-2.466 2.325,-2.409 2.04,-2.296 1.73,-2.155 0.765,-1.077 0.737,-1.049 0.624,-1.105 0.595,-1.077 0.51,-1.077 0.425,-1.134 0.397,-1.106 0.312,-1.105 0.255,-1.134 0.199,-1.162 0.113,-1.219 0.057,-1.219 v -1.276 l -0.057,-1.275 -0.113,-1.333 -0.199,-1.389 -0.227,-1.275 -0.226,-1.191 -0.341,-1.162 -0.34,-1.049 -0.368,-1.02 -0.425,-1.021 -0.482,-0.907 -0.511,-0.85 -0.51,-0.794 -0.595,-0.737 -0.624,-0.709 -0.68,-0.623 -0.709,-0.596 -0.765,-0.51 -0.794,-0.453 -0.822,-0.397 -1.757,-0.624 -1.871,-0.453 -1.956,-0.227 h -2.041 l -2.154,0.198 -2.268,0.369 -2.324,0.595 z m 48.642,-17.801 -1.417,0.453 v 0 l -0.652,0.255 -1.871,0.907 -1.701,0.992 -1.53,1.106 -1.389,1.219 -0.624,0.595 -0.567,0.68 -0.538,0.624 -0.511,0.709 -0.453,0.708 -0.397,0.737 -0.369,0.766 -0.34,0.822 -0.283,0.85 -0.255,0.879 -0.227,0.935 -0.199,0.964 -0.141,1.049 -0.085,1.049 -0.114,2.239 0.057,2.438 0.227,2.579 0.368,2.75 6.888,44.107 -8.504,3.118 0.851,5.273 0.51,-0.199 0.51,-0.113 0.539,-0.113 0.595,-0.114 0.596,-0.057 0.595,-0.028 0.623,-0.057 0.652,0.029 0.624,0.056 0.652,0.057 0.595,0.17 0.624,0.17 0.567,0.227 0.567,0.284 0.567,0.34 0.538,0.34 0.539,0.453 0.567,0.482 0.51,0.539 0.51,0.538 0.539,0.596 0.453,0.652 0.454,0.68 0.453,0.709 0.426,0.793 0.453,0.794 0.425,0.907 0.426,0.907 0.822,2.041 0.793,2.24 5.131,-1.9 -2.523,-16.214 4.28,-1.559 v 0 l 10.63,-2.948 -1.162,-7.512 -10.63,2.948 v 0 l -4.28,1.588 -6.973,-44.504 -0.227,-1.616 -0.113,-1.559 -0.057,-1.502 0.085,-1.361 0.057,-0.68 0.085,-0.652 0.085,-0.596 0.141,-0.623 0.142,-0.567 0.199,-0.567 0.17,-0.51 0.226,-0.539 0.256,-0.482 0.255,-0.482 0.283,-0.425 0.255,-0.453 0.312,-0.397 0.284,-0.369 v 0 l 0.028,-0.056 0.312,-0.312 0.397,-0.312 0.368,-0.284 0.369,-0.311 0.822,-0.482 0.907,-0.397 0.935,-0.284 0.992,-0.283 0.964,-0.198 0.964,-0.199 0.907,-0.142 3.628,-0.311 -0.907,-5.783 -0.397,-0.113 -0.482,-0.057 -1.077,-0.114 h -1.275 l -1.474,0.057 -1.503,0.142 -1.502,0.198 -1.446,0.227 z m 41.981,-10.007 -3.061,0.652 -2.863,0.907 -2.636,1.163 -2.438,1.417 -1.134,0.822 -1.077,0.879 -0.85,0.765 v 0 l -0.171,0.198 -0.963,1.106 -0.879,1.191 -0.85,1.218 -0.766,1.304 -0.737,1.333 -0.68,1.417 -0.595,1.502 -0.567,1.503 -0.454,1.615 -0.425,1.616 -0.34,1.729 -0.284,1.786 -0.198,1.814 -0.227,3.827 0.057,4.054 0.34,4.308 0.595,4.507 0.794,4.451 0.964,4.082 1.162,3.741 1.304,3.402 0.709,1.531 0.793,1.502 0.766,1.361 0.85,1.275 0.879,1.247 0.935,1.106 0.964,1.02 1.02,0.936 1.049,0.85 1.077,0.766 1.134,0.68 1.162,0.624 1.219,0.51 0.596,0.227 v 0.056 l 0.68,0.199 1.304,0.482 1.332,0.34 2.863,0.567 3.005,0.198 3.146,-0.085 3.317,-0.397 3.061,-0.652 2.835,-0.907 2.636,-1.19 2.466,-1.418 1.134,-0.793 0.936,-0.737 v 0 l 0.141,-0.142 1.021,-0.794 0.992,-0.85 0.935,-0.936 0.879,-1.02 0.822,-1.106 0.765,-1.134 0.709,-1.218 0.624,-1.304 0.623,-1.361 0.482,-1.446 0.425,-1.502 0.369,-1.587 0.283,-1.616 0.227,-1.729 0.255,-3.629 -0.028,-3.94 -0.312,-4.195 -0.595,-4.45 -0.822,-4.508 -0.964,-4.195 -1.162,-3.855 -1.332,-3.572 -0.766,-1.672 -0.765,-1.587 -0.822,-1.531 -0.851,-1.446 -0.907,-1.332 -0.963,-1.247 -0.993,-1.248 -1.048,-1.105 -1.078,-1.049 -1.105,-0.964 -1.191,-0.878 -1.19,-0.851 -1.247,-0.765 -1.304,-0.652 -0.511,-0.199 v -0.028 l -0.822,-0.312 -1.332,-0.397 -2.835,-0.538 -3.004,-0.227 -3.175,0.085 z m 1.304,6.832 2.126,-0.255 1.021,-0.029 0.992,0.057 0.964,0.142 0.907,0.17 0.935,0.227 0.851,0.311 0.85,0.397 0.794,0.397 0.765,0.539 0.737,0.567 0.709,0.652 0.652,0.708 0.652,0.766 0.623,0.85 0.596,0.907 0.566,0.964 0.737,1.502 v 0.057 l 0.341,0.567 1.02,2.438 0.907,2.636 0.851,2.92 0.765,3.089 0.709,3.345 0.595,3.572 0.51,3.572 0.369,3.373 0.198,3.146 0.057,2.92 -0.114,2.693 -0.255,2.438 -0.113,0.567 v 0 l -0.284,1.729 -0.255,1.105 -0.283,1.021 -0.34,0.963 -0.369,0.936 -0.453,0.879 -0.482,0.793 -0.511,0.794 -0.595,0.709 -0.652,0.652 -0.68,0.623 -0.737,0.567 -0.765,0.51 -0.851,0.482 -0.879,0.397 -0.907,0.369 -0.992,0.311 -2.097,0.454 -2.155,0.255 -0.992,0.028 -0.992,-0.056 -0.964,-0.114 -0.935,-0.17 -0.907,-0.226 -0.851,-0.312 -0.822,-0.369 -0.793,-0.397 -0.766,-0.51 -0.737,-0.567 -0.708,-0.595 -0.681,-0.68 -0.652,-0.766 -0.567,-0.822 -0.595,-0.879 -0.567,-0.963 -1.077,-2.07 -1.021,-2.296 -0.368,-0.963 -0.028,-0.085 -0.482,-1.503 -0.851,-2.806 -0.765,-3.033 -0.68,-3.317 -0.624,-3.543 -0.51,-3.6 -0.34,-3.402 -0.227,-3.203 -0.057,-3.033 0.029,-1.417 v -0.085 l 0.085,-1.276 0.226,-2.579 0.397,-2.353 0.227,-1.106 0.312,-1.048 0.34,-1.021 0.368,-0.935 0.426,-0.907 0.482,-0.822 0.538,-0.794 0.567,-0.737 0.624,-0.652 0.68,-0.652 0.737,-0.567 0.794,-0.539 0.822,-0.453 0.85,-0.425 0.936,-0.369 0.963,-0.312 z m 30.189,-8.674 0.851,5.584 h 0.368 l 0.992,0.057 0.964,0.085 0.936,0.141 0.907,0.199 0.878,0.255 0.851,0.312 0.822,0.34 0.822,0.397 0.368,0.227 0.369,0.283 0.34,0.284 0.312,0.34 0.312,0.397 0.311,0.396 0.284,0.426 0.255,0.482 0.255,0.51 0.227,0.567 0.198,0.567 0.227,0.623 0.312,1.333 0.283,1.502 6.435,41.131 0.17,1.389 0.057,0.68 0.028,0.595 -0.028,0.567 -0.029,0.567 -0.056,0.482 -0.114,0.453 -0.113,0.454 -0.142,0.425 -0.198,0.34 -0.199,0.369 -0.255,0.312 -0.226,0.255 -0.312,0.255 -0.312,0.198 -0.68,0.369 -0.737,0.312 -0.766,0.226 -0.822,0.227 -0.822,0.17 -0.907,0.085 -0.907,0.029 -0.964,0.028 -0.368,-0.028 0.878,5.584 11.226,0.227 v 0 l 7.058,0.85 0.198,-12.813 0.596,0.085 1.077,1.985 1.134,1.984 1.105,1.871 1.134,1.786 0.595,0.878 0.624,0.794 0.057,0.114 0.028,0.056 0.567,0.652 0.652,0.794 0.68,0.765 0.765,0.766 0.737,0.652 0.794,0.652 0.822,0.623 0.907,0.595 0.936,0.511 0.992,0.453 1.077,0.454 1.162,0.425 1.191,0.312 1.219,0.312 1.53,0.311 0.993,0.142 v 0 l 0.453,0.113 1.247,0.199 1.163,0.113 1.048,0.029 0.907,-0.085 0.822,-0.199 0.397,-0.142 0.34,-0.198 0.312,-0.198 0.284,-0.227 0.255,-0.255 0.227,-0.255 0.226,-0.312 0.17,-0.312 0.171,-0.34 0.113,-0.397 0.113,-0.369 0.057,-0.453 0.085,-0.397 0.028,-0.51 v -0.454 l -0.028,-0.51 -0.028,-0.567 -0.114,-0.567 -0.056,-0.482 -0.114,-0.51 -0.141,-0.51 -0.142,-0.482 -0.142,-0.51 -0.198,-0.482 -0.17,-0.454 -0.227,-0.482 -0.227,-0.482 -0.227,-0.453 -0.283,-0.482 -0.284,-0.425 -0.311,-0.482 -0.284,-0.425 -0.68,-0.879 -0.397,-0.425 -0.369,-0.397 -0.425,-0.397 -0.425,-0.425 -0.425,-0.34 -0.482,-0.34 -1.049,-0.737 -1.077,-0.624 -1.191,-0.595 -1.275,-0.567 -0.596,-0.199 v 0 l -0.793,-0.198 0.17,1.304 0.142,1.19 0.056,1.106 v 0.992 l -0.056,0.879 -0.085,0.794 -0.085,0.368 -0.086,0.312 -0.113,0.312 -0.113,0.283 -0.142,0.255 -0.142,0.227 -0.198,0.198 -0.17,0.199 -0.227,0.17 -0.227,0.17 -0.255,0.113 -0.255,0.114 -0.284,0.056 -0.311,0.029 -0.312,0.056 -0.34,0.029 -0.737,-0.057 -0.794,-0.142 -0.794,-0.226 -0.793,-0.312 -0.397,-0.17 -0.369,-0.199 -0.368,-0.255 -0.369,-0.198 -0.397,-0.312 -0.34,-0.283 -0.368,-0.312 -0.369,-0.312 -0.34,-0.369 -0.368,-0.368 -0.652,-0.794 -0.652,-0.879 -0.624,-0.907 -0.624,-0.963 -0.311,-0.482 v -0.029 l -0.284,-0.453 -0.567,-0.992 -0.567,-1.049 -0.538,-1.106 -0.511,-1.134 -0.935,-2.324 -0.879,-2.381 -0.793,-2.381 -0.737,-2.438 -0.596,-2.381 -0.567,-2.239 -0.425,-2.098 -0.34,-1.984 -3.26,-20.75 -0.142,-1.361 -0.056,-0.623 -0.029,-0.595 0.029,-0.567 0.028,-0.539 0.085,-0.482 0.085,-0.482 0.114,-0.397 0.17,-0.396 0.17,-0.341 0.198,-0.311 0.227,-0.256 0.283,-0.255 0.312,-0.198 0.284,-0.17 0.708,-0.255 0.539,-0.114 v 0 l 0.17,-0.085 0.737,-0.113 0.794,-0.028 0.822,0.056 0.878,0.085 0.879,0.114 0.964,0.198 3.231,0.709 -0.85,-5.556 z m 76.536,20.041 -2.722,-1.446 -2.494,-1.049 -2.296,-0.68 -0.992,-0.199 v 0 h -0.085 l -1.106,0.029 -1.02,0.113 -0.992,0.199 -0.907,0.311 -0.908,0.397 -0.822,0.482 -0.765,0.567 -0.737,0.652 -0.68,0.765 -0.624,0.822 -0.538,0.964 -0.511,0.992 -0.425,1.134 -0.368,1.191 -0.284,1.275 -0.255,1.361 -0.17,1.134 v 0 l -0.028,0.283 -0.227,3.232 0.028,3.486 0.284,3.827 0.567,4.139 0.793,4.507 0.964,4.309 1.134,4.053 1.275,3.884 0.312,0.793 v 0.057 l 1.106,2.863 0.765,1.786 0.766,1.729 0.85,1.701 0.879,1.7 0.935,1.588 0.936,1.559 0.992,1.502 0.992,1.446 1.049,1.389 1.048,1.304 1.106,1.275 1.162,1.248 1.134,1.162 1.191,1.134 1.218,1.02 0.964,0.794 v 0.057 l 0.284,0.226 2.437,2.07 2.552,1.927 2.664,1.673 2.41,1.332 2.239,0.964 1.559,0.538 v 0 l 0.482,0.17 1.757,0.511 0.794,0.141 0.794,0.057 0.737,-0.028 0.68,-0.114 0.652,-0.226 0.624,-0.284 0.567,-0.368 0.538,-0.454 0.511,-0.538 0.425,-0.681 0.368,-0.708 0.312,-0.823 0.312,-0.935 0.227,-0.992 0.17,-1.077 0.113,-1.191 0.142,-2.636 -0.114,-3.033 -0.311,-3.373 -0.511,-3.742 -0.963,-6.066 -14.032,-10.262 v 0 l -14.088,-8.277 v 0 l -5.386,-2.466 -0.425,-3.401 -0.255,-3.119 -0.142,-2.834 0.057,-2.523 0.198,-2.211 0.17,-1.021 0.199,-0.907 0.255,-0.85 0.255,-0.765 0.34,-0.709 0.369,-0.624 0.396,-0.567 0.426,-0.481 0.028,-0.029 v 0 l 0.397,-0.34 0.51,-0.283 0.51,-0.256 0.539,-0.141 0.595,-0.114 0.595,-0.028 0.681,0.028 0.68,0.114 0.737,0.17 0.765,0.227 1.645,0.708 1.757,0.936 1.332,0.822 1.276,0.878 1.247,0.936 0.113,0.085 v 0.028 l 1.021,0.992 1.105,1.134 1.049,1.219 1.049,1.247 1.021,1.333 0.963,1.36 0.907,1.304 0.851,1.332 0.794,1.276 0.765,1.247 0.709,1.276 0.652,1.219 0.595,1.247 h 0.142 l 0.141,-0.028 0.142,-0.029 0.113,-0.085 0.114,-0.113 0.141,-0.085 0.114,-0.17 0.085,-0.17 0.113,-0.199 0.057,-0.226 0.028,-0.284 0.029,-0.283 v -0.312 -0.369 l -0.029,-0.397 -0.056,-0.425 -0.057,-0.312 -0.085,-0.368 -0.085,-0.34 -0.114,-0.397 -0.113,-0.397 -0.142,-0.425 -0.311,-0.822 -0.369,-0.936 -0.425,-0.935 -0.482,-1.02 -0.539,-1.049 -0.623,-1.077 -0.652,-1.134 -0.709,-1.134 -0.794,-1.162 -0.822,-1.163 -0.878,-1.19 -0.936,-1.191 -0.992,-1.219 -1.049,-1.219 -1.105,-1.218 -1.134,-1.163 -1.219,-1.133 -1.332,-1.049 -1.389,-0.992 -1.446,-0.936 z m 16.356,49.181 0.368,2.551 0.284,2.381 0.17,2.154 0.085,2.013 -0.029,1.814 -0.085,1.644 -0.198,1.418 -0.312,1.247 -0.17,0.567 -0.198,0.51 -0.284,0.397 -0.283,0.312 -0.312,0.312 -0.142,0.085 v 0 l -0.227,0.113 -0.453,0.198 -0.454,0.114 -0.482,0.028 h -0.538 l -0.595,-0.113 -0.596,-0.114 -0.652,-0.226 -0.68,-0.284 -1.446,-0.794 -1.389,-0.907 -0.68,-0.482 -0.68,-0.567 -0.624,-0.566 -0.652,-0.596 -0.624,-0.652 -0.595,-0.68 -0.623,-0.709 -0.567,-0.765 -0.567,-0.737 -0.567,-0.85 -0.567,-0.851 H 496.8 v 0 l -0.539,-0.85 -0.539,-0.879 -0.538,-0.935 -1.049,-1.928 -0.964,-2.069 -0.907,-2.183 -0.85,-2.324 -0.794,-2.466 -0.737,-2.58 -0.68,-2.693 -0.596,-2.835 z"
         transform="translate(0,1.1220472e-5)"
         clip-rule="evenodd"
         id="path133" />
    </clipPath>
    <linearGradient
       xlink:href="#linearGradient259"
       id="linearGradient260"
       x1="16.630367"
       y1="662.85535"
       x2="584.52606"
       y2="778.98169"
       gradientUnits="userSpaceOnUse" />
  </defs>
  <g
     id="g1"
     transform="translate(-56.752205,-50.442083)">
    <g
       opacity="0.4"
       id="g131"
       style="display:inline">
      <path
         id="path68"
         clip-path="url(#clipPath4)"
         style="fill:#800080;fill-opacity:1;fill-rule:evenodd;stroke:none"
         d="M 154.24824 971.24671 C 146.18724 971.33503 139.007 969.60789 132.83076 966.04652 C 116.36178 956.52253 107.63143 934.2985 107.49043 901.58753 C 107.34843 868.87556 115.82413 826.86567 132.06611 779.72571 C 133.73817 774.8731 135.53416 769.96246 137.35566 765.04212 L 64.942573 765.04212 L 64.942573 609.39075 L 214.15596 609.39075 C 238.77656 569.47152 265.67683 532.37728 293.04658 500.88098 C 325.75755 463.26502 357.90189 434.89039 386.30586 418.67541 C 414.70883 402.43343 438.32172 398.89036 454.7917 408.38635 C 471.26069 417.91034 479.99104 440.13437 480.13204 472.84533 C 480.27404 505.5573 471.79834 547.56867 455.55635 594.70862 C 453.88432 599.56116 452.08828 604.47049 450.2668 609.39075 L 522.67989 609.39075 L 522.67989 765.04212 L 373.46651 765.04212 C 348.8459 804.96134 321.94563 842.05559 294.57588 873.55189 C 261.86491 911.16785 229.71957 939.54347 201.3166 955.75746 C 183.56412 965.9087 167.68325 971.09952 154.24824 971.24671 z "
         transform="matrix(1.3333333,0,0,-1.3333333,0,1122.5197)" />
    </g>
    <path
       id="path132"
       clip-path="url(#clipPath133)"
       style="fill:url(#linearGradient260);fill-opacity:1;fill-rule:evenodd;stroke:none"
       d="M 154.24824 985.24916 C 146.18724 985.33762 139.007 983.61142 132.83076 980.05042 C 116.36178 970.52543 107.63143 948.30194 107.49043 915.58997 C 107.34843 882.87801 115.82413 840.86911 132.06611 793.72815 C 133.73817 788.87554 135.53416 783.9649 137.35566 779.04456 L 64.942573 779.04456 L 64.942573 623.39465 L 214.15596 623.39465 C 238.77656 583.47543 265.67683 546.37972 293.04658 514.88342 C 325.75755 477.26846 357.90189 448.8933 386.30586 432.67932 C 414.70883 416.43633 438.32172 412.89426 454.7917 422.39025 C 471.26069 431.91425 479.99104 454.13874 480.13204 486.85071 C 480.27404 519.56167 471.79834 561.57111 455.55635 608.71106 C 453.88429 613.56367 452.08831 618.4743 450.2668 623.39465 L 522.67989 623.39465 L 522.67989 779.04456 L 373.46651 779.04456 C 348.8459 818.96378 321.94563 856.05803 294.57588 887.55433 C 261.86491 925.17029 229.71957 953.54591 201.3166 969.7599 C 183.56412 979.91114 167.68325 985.10171 154.24824 985.24916 z "
       transform="matrix(1.3333333,0,0,-1.3333333,0,1122.5197)" />
  </g>
</svg>
